<?xml version="1.0" encoding="UTF-8"?>
<!-- Generator: visioncortex VTracer 0.6.3 -->
<svg version="1.1" xmlns="http://www.w3.org/2000/svg" width="3264" height="3264">
<path d="M0 0 C200.69 -0.06 200.69 -0.06 405.44 -0.12 C468.78 -0.15 468.78 -0.15 533.4 -0.18 C585.01 -0.19 585.01 -0.19 609.18 -0.19 C627.15 -0.19 645.12 -0.2 663.09 -0.21 C681.45 -0.23 699.81 -0.23 718.18 -0.23 C728.13 -0.23 738.07 -0.23 748.02 -0.24 C824.43 -0.32 824.43 -0.32 857 2 C858.17 2.08 859.33 2.16 860.53 2.24 C866.76 2.67 872.97 3.17 879.19 3.75 C880.54 3.87 880.54 3.87 881.92 4 C969.63 12.07 1056.28 30.23 1215.45 127.67 C1217.58 129.62 1219.74 131.51 1221.94 133.38 C1229.46 139.92 1236.6 147.11 1243.05 154.72 C1244.62 156.56 1246.21 158.36 1247.82 160.16 C1266.73 181.4 1282.34 205.11 1296 230 C1296.47 230.85 1296.94 231.7 1297.42 232.57 C1339.62 309.67 1356.19 398.98 1361 617 C1360.94 617.84 1360.87 618.68 1360.81 619.54 C1355.24 692.63 1341.19 764.87 1311 832 C1310.65 832.79 1310.3 833.58 1309.94 834.39 C1296.22 865.25 1278.01 895.34 1256 921 C1255.14 922.03 1254.29 923.06 1253.43 924.09 C1244.66 934.62 1235.41 944.66 1225.75 954.38 C1225.2 954.93 1224.64 955.49 1224.07 956.07 C1156.97 1022.91 1062.24 1057.53 927 1082 C925.9 1082.16 925.9 1082.16 924.78 1082.32 C905.8 1085.05 886.74 1086.69 867.62 1088.19 C866.55 1088.27 865.48 1088.36 864.37 1088.44 C837.33 1090.56 810.33 1091.15 783.22 1091.12 C779.04 1091.12 774.86 1091.12 770.68 1091.12 C763.38 1091.12 756.07 1091.12 748.77 1091.12 C737.77 1091.11 726.77 1091.11 715.76 1091.11 C697.32 1091.11 678.88 1091.11 660.43 1091.11 C635.49 1091.1 610.55 1091.1 585.61 1091.09 C525.68 1091.09 465.75 1091.08 405.81 1091.06 C204.94 1091.03 204.94 1091.03 0 1091 C0 730.97 0 370.94 0 0 Z M546 56 C546 379.07 546 702.14 546 1035 C621.9 1035 697.8 1035 776 1035 C776 711.93 776 388.86 776 56 C700.1 56 624.2 56 546 56 Z " fill="#FFFFFF" transform="translate(1734,1141)"/>
<path d="M0 0 C182.49 0 364.98 0 553 0 C558.61 13.53 564.22 27.06 570 41 C572.97 48.13 575.95 55.25 578.94 62.38 C579.68 64.15 580.42 65.92 581.17 67.69 C582.69 71.33 584.21 74.96 585.73 78.59 C589.12 86.67 592.5 94.74 595.88 102.81 C597.75 107.29 599.63 111.77 601.5 116.25 C602.25 118.04 603 119.83 603.75 121.62 C604.12 122.51 604.49 123.4 604.88 124.31 C608.25 132.38 608.25 132.38 609.38 135.06 C610.12 136.85 610.87 138.65 611.62 140.44 C613.5 144.92 615.38 149.4 617.25 153.89 C620.61 161.9 623.97 169.92 627.32 177.93 C635.99 198.63 644.64 219.33 653.27 240.04 C659.21 254.31 665.16 268.56 671.12 282.81 C671.49 283.69 671.86 284.56 672.23 285.46 C675.6 293.5 678.97 301.54 682.34 309.58 C684.68 315.18 687.03 320.78 689.38 326.38 C689.95 327.74 689.95 327.74 690.53 329.13 C695.52 341.04 700.47 352.95 705.4 364.89 C712.09 381.08 718.88 397.24 725.65 413.4 C729.06 421.54 732.47 429.68 735.88 437.83 C737.75 442.3 739.63 446.78 741.5 451.25 C742.25 453.04 743 454.83 743.75 456.62 C744.12 457.51 744.49 458.4 744.88 459.31 C782 548 819.12 636.69 965.37 986.06 C966.13 987.85 966.88 989.65 967.63 991.44 C969.49 995.9 971.36 1000.37 973.23 1004.83 C977.48 1014.98 981.73 1025.12 985.97 1035.27 C987.91 1039.89 989.84 1044.5 991.77 1049.12 C992.5 1050.87 993.23 1052.61 993.96 1054.36 C994.31 1055.19 994.66 1056.03 995.02 1056.89 C996.86 1061.29 998.71 1065.69 1000.57 1070.08 C1001.32 1071.84 1002.06 1073.61 1002.8 1075.37 C1003.65 1077.38 1004.5 1079.39 1005.36 1081.39 C1005.72 1082.24 1006.08 1083.09 1006.45 1083.97 C1006.75 1084.68 1007.05 1085.4 1007.37 1086.14 C1008 1088 1008 1088 1008 1091 C814.29 1091 620.58 1091 421 1091 C416.81 1082.01 412.67 1073.08 408.81 1063.95 C408.12 1062.33 408.12 1062.33 407.42 1060.68 C405.94 1057.2 404.47 1053.73 403 1050.25 C401.96 1047.81 400.93 1045.37 399.89 1042.92 C398.34 1039.28 396.79 1035.64 395.25 1031.99 C391.35 1022.82 387.43 1013.66 383.5 1004.5 C377.82 991.27 372.17 978.02 366.53 964.77 C355.07 937.84 343.55 910.93 332.02 884.03 C326.51 871.19 321.01 858.35 315.5 845.5 C314 842 312.5 838.51 311 835.01 C310.51 833.85 310.01 832.7 309.5 831.51 C306.5 824.49 303.49 817.47 300.47 810.45 C289.64 785.19 278.83 759.93 268.07 734.64 C260.74 717.42 253.38 700.21 246 683 C237.66 663.56 229.35 644.11 221.07 624.65 C213.74 607.42 206.38 590.21 199 573 C191.12 554.63 183.27 536.26 175.44 517.88 C174.96 516.76 174.49 515.65 174 514.51 C170.19 505.55 166.38 496.6 162.57 487.65 C148.44 454.42 134.25 421.22 120.02 388.03 C115.51 377.52 111 367.01 106.5 356.5 C104 350.67 101.5 344.83 99 339 C98 336.67 97 334.33 96 332 C95.5 330.85 95.01 329.69 94.5 328.5 C90 318 90 318 88.5 314.5 C87.5 312.17 86.5 309.83 85.5 307.5 C83 301.67 80.5 295.84 78 290 C73.49 279.49 68.99 268.97 64.47 258.45 C61.96 252.59 59.45 246.73 56.94 240.88 C56.44 239.73 55.95 238.58 55.44 237.39 C47.38 218.59 39.36 199.77 31.35 180.95 C23.97 163.6 16.54 146.28 9 129 C5.86 132.66 4.27 136.74 2.47 141.14 C2.13 141.96 1.79 142.78 1.44 143.63 C0.7 145.41 -0.04 147.2 -0.77 148.99 C-2.79 153.87 -4.82 158.75 -6.84 163.62 C-7.27 164.64 -7.69 165.66 -8.13 166.71 C-12.66 177.62 -17.3 188.5 -21.94 199.38 C-23.62 203.33 -25.31 207.28 -26.99 211.23 C-27.41 212.21 -27.82 213.19 -28.25 214.2 C-32.71 224.66 -37.14 235.14 -41.56 245.62 C-42.15 247.01 -42.15 247.01 -42.74 248.43 C-44.71 253.09 -46.68 257.75 -48.64 262.41 C-52.2 270.83 -55.75 279.26 -59.31 287.69 C-61.29 292.37 -63.27 297.06 -65.25 301.75 C-66.04 303.63 -66.83 305.5 -67.62 307.38 C-68.02 308.3 -68.41 309.23 -68.81 310.19 C-91.38 363.63 -91.38 363.63 -92.56 366.44 C-93.35 368.31 -94.15 370.19 -94.94 372.06 C-96.92 376.75 -98.89 381.43 -100.87 386.11 C-104.45 394.6 -108.03 403.08 -111.61 411.57 C-113.62 416.31 -115.62 421.06 -117.62 425.81 C-118.02 426.74 -118.41 427.67 -118.82 428.63 C-124.14 441.25 -129.49 453.86 -134.86 466.46 C-135.21 467.3 -135.57 468.14 -135.94 469 C-136.29 469.83 -136.65 470.67 -137.01 471.53 C-141.88 482.97 -146.68 494.44 -151.41 505.93 C-155.62 516.13 -159.93 526.29 -164.25 536.44 C-169.88 549.66 -175.49 562.88 -181.06 576.12 C-181.39 576.91 -181.72 577.69 -182.06 578.49 C-183.72 582.43 -185.37 586.37 -187.03 590.31 C-190.29 598.06 -193.55 605.81 -196.81 613.56 C-197.14 614.34 -197.47 615.11 -197.8 615.91 C-205.71 634.7 -213.64 653.48 -221.58 672.26 C-225.16 680.74 -228.74 689.22 -232.32 697.69 C-234.29 702.38 -236.27 707.06 -238.25 711.75 C-239.04 713.62 -239.83 715.5 -240.62 717.38 C-302.37 863.62 -302.37 863.62 -303.56 866.44 C-304.35 868.31 -305.15 870.19 -305.94 872.06 C-307.92 876.75 -309.89 881.43 -311.87 886.11 C-315.45 894.6 -319.03 903.08 -322.61 911.57 C-324.62 916.31 -326.62 921.06 -328.62 925.81 C-329.22 927.22 -329.22 927.22 -329.82 928.65 C-335.73 942.64 -341.66 956.62 -347.61 970.59 C-353.44 984.28 -359.19 997.99 -364.92 1011.72 C-371.99 1028.65 -379.16 1045.54 -386.36 1062.42 C-386.77 1063.37 -387.17 1064.31 -387.59 1065.29 C-388.36 1067.1 -389.14 1068.92 -389.91 1070.74 C-392.36 1076.49 -394.78 1082.25 -397.13 1088.04 C-398 1090 -398 1090 -399 1091 C-400.93 1091.09 -402.87 1091.12 -404.8 1091.11 C-406.67 1091.11 -406.67 1091.11 -408.57 1091.11 C-409.93 1091.11 -411.3 1091.1 -412.66 1091.1 C-414.05 1091.1 -415.44 1091.09 -416.83 1091.09 C-420.49 1091.09 -424.15 1091.08 -427.81 1091.07 C-431.54 1091.06 -435.28 1091.05 -439.01 1091.05 C-446.34 1091.04 -453.67 1091.02 -461 1091 C-458.81 1084.11 -456.2 1077.52 -453.34 1070.89 C-452.89 1069.83 -452.43 1068.76 -451.97 1067.67 C-450.99 1065.38 -450.01 1063.1 -449.03 1060.82 C-446.68 1055.35 -444.34 1049.87 -442.01 1044.4 C-441.21 1042.53 -440.41 1040.67 -439.61 1038.81 C-434.75 1027.43 -429.93 1016.03 -425.12 1004.62 C-423.58 1000.95 -422.03 997.28 -420.48 993.6 C-420.1 992.71 -419.73 991.82 -419.34 990.91 C-415.41 981.6 -411.46 972.3 -407.5 963 C-401.48 948.84 -395.48 934.68 -389.5 920.5 C-383.18 905.51 -376.83 890.52 -370.46 875.55 C-364.78 862.21 -359.13 848.86 -353.5 835.5 C-347.18 820.51 -340.83 805.52 -334.46 790.55 C-328.78 777.21 -323.13 763.86 -317.5 750.5 C-311.18 735.51 -304.83 720.52 -298.46 705.55 C-292.78 692.21 -287.13 678.86 -281.5 665.5 C-275.18 650.51 -268.83 635.52 -262.46 620.55 C-256.78 607.21 -251.13 593.86 -245.5 580.5 C-239.18 565.51 -232.83 550.52 -226.46 535.55 C-220.78 522.21 -215.13 508.86 -209.5 495.5 C-203.52 481.32 -197.52 467.16 -191.5 453 C-179.58 424.99 -167.74 396.94 -155.98 368.87 C-149.26 352.82 -142.48 336.81 -135.71 320.79 C-132.89 314.11 -130.08 307.44 -127.26 300.77 C-119.08 281.37 -110.88 261.99 -102.62 242.62 C-96.69 228.69 -90.77 214.74 -84.92 200.76 C-80.28 189.66 -75.61 178.58 -70.94 167.5 C-70.54 166.55 -70.14 165.6 -69.73 164.63 C-63.03 148.77 -56.29 132.92 -49.54 117.08 C-43.61 103.16 -37.71 89.22 -31.85 75.26 C-25.62 60.45 -19.35 45.67 -13.05 30.89 C-8.68 20.6 -4.34 10.3 0 0 Z " fill="#FFFFFF" transform="translate(592,1141)"/>
</svg>
